<svg version="1" xmlns="http://www.w3.org/2000/svg" width="400" height="400" viewBox="0 0 300.000000 300.000000"><path d="M11.1 38.6c-1.5 1.1-1.6 9.3-1.7 90.6 0 77.5.1 89.5 1.4 91.1 1.4 1.6 4.6 1.7 41.1 1.6H109l17.5.1v31.6l-19.5-.1c-10.7-.1-20.6.2-21.9.5-4.5 1.1-4.3 7.7.2 8.1.7.1 30 .2 65.2.3 59.7.1 64.1 0 65.8-1.7 2.2-2.2 2.2-3.2-.1-5.5-1.5-1.5-3.9-1.7-22.5-1.7H173V222h2.8c1.5 0 27.1-.1 56.9-.1 44.9 0 54.5-.3 55.7-1.4 1.1-1.2 1.4-16 1.4-90.9 0-79.2-.2-89.7-1.6-90.8-2.1-1.8-274.6-1.9-277.1-.2zm269.9 91V213H18.3V46.3H281v83.3zm-118.7 92.3c1.6.1 1.7 1.3 1.5 15.8l-.3 15.8-13 .1c-7.1 0-13.5-.2-14.2-.4-.8-.2-1.1-4.9-1.2-15.7v-15.4l6.2-.3c3.4-.2 9.1-.2 12.7-.1 3.6.1 7.3.2 8.3.2z"/><path d="M86 60c-2 2-2 3.2-1.9 37.8 0 33.7.2 35.9 2.1 39.9 1.4 2.9 10.9 12.9 29.8 31.4 15.4 15 28.5 27.6 29.2 28 .7.5 2.8.9 4.7.9 3.7 0 .4 3 42.3-38.2 10.2-10 19.6-20.1 20.7-22.3 2-3.8 2.1-5.5 2.1-38.7 0-19.1-.4-35.8-.9-37.1-1.2-3.1-3.6-4-6.7-2.4-1.3.7-9.1 7.9-17.2 16-14.6 14.5-18.9 17.5-23.2 16.2-6.5-1.9-23.8-2.3-30.8-.7-2.4.6-5.1.9-6 .7-.9-.2-2.5-.4-3.5-.4-1-.1-8.8-7-17.3-15.4-8.5-8.3-16.8-15.8-18.4-16.5-2.7-1.1-3.2-1-5 .8zm34.5 35.2c2.7 2.1 3.8 2.3 12.5 2 16.8-.6 23.3-.5 32 .3 10.8 1 10.8.9 28.5-16.4 7.4-7.2 13.8-13.1 14.2-13.1 1 0 1 63 .1 64.5-.4.6-5.9 1-13.8 1-8.6-.1-13.7.3-14.8 1.1-.9.6-5.7 8-10.7 16.3l-8.9 15.1h-19.5l-8.7-14.8c-4.8-8.1-9.3-15.4-10.1-16.2-1.1-1.2-4.3-1.5-15.6-1.5H91.5l-.3-33.4-.2-33.4 13.2 13.1c7.3 7.2 14.6 14.1 16.3 15.4zm6.7 62.2c5.5 9.4 11.8 20 14 23.5 2.2 3.5 3.5 6.2 2.9 6-.9-.4-47.1-45.9-47.1-46.5 0-.1 4.5-.2 10-.1h10.1l10.1 17.1zm74.8-16.8c0 .2-45 44.9-47.7 47.4-.4.4 22.2-37.4 27.2-45.6 1.2-1.9 2.3-2.1 10.9-2.1 5.3 0 9.6.1 9.6.3z"/><path d="M98 98.3v12.5l9-4.6 9-4.7-4.3-3.8c-2.3-2.1-6.3-5.6-8.9-7.8L98 85.8v12.5zM194.5 91.2c-3.2 2.9-7.1 6.4-8.7 7.8l-2.7 2.5 8.9 4.6 9 4.6V98.3c0-6.7-.1-12.3-.3-12.3-.2 0-3 2.4-6.2 5.2zM129.2 117.6c-2.4 1.7-2.8 4.4-1 6.2 2.8 2.8 8.1 0 7.1-3.8-.8-3.1-3.6-4.2-6.1-2.4zM164.2 118.7c-1.5 2.8.3 6.3 3.1 6.3 3.3 0 5.1-2.4 4.3-5.5-.5-2-1.3-2.5-3.6-2.5-1.8 0-3.3.7-3.8 1.7z"/></svg>