<svg id="Capa_1" enable-background="new 0 0 510.004 510.004" height="16" viewBox="0 0 510.004 510.004" width="512" xmlns="http://www.w3.org/2000/svg"><g><path d="m135.868 61.832c-73.267-6.85-125.224-18.114-135.868-19.904v426.148c.1-.018 1.086-.204.986-.185l254.014-77.889 15-193.16-15-129.447c-39.734 0-79.468-1.854-119.132-5.563z" fill="#fff5f5"/><path d="m508.18 467.734c.101.019 1.927.361 1.82.342 0-12.023 0-414.133 0-426.148-12.057 1.749-114.882 25.467-255 25.467v258.894z" fill="#d3dce3"/><path d="m222.326 366.529 2.674 17.393 30 19.436 15-38.534-15-38.535z" fill="#34ce96"/><path d="m289.424 443.091c78.051 2.104 163.642 12.849 220.576 24.985-28.378-38.185 4.378 10.491-166-258.074l-89 116.287v77.069c26.176 29.506 18.565 20.694 34.424 39.733z" fill="#0baa6d"/><circle cx="195" cy="180.002" fill="#fce867" r="30"/><path d="m150 285.002c-150.929 184.469-130.085 158.726-149.014 182.889 10.717-1.8 62.186-12.922 134.882-19.712 39.664-3.704 79.398-5.554 119.132-5.552l15-7.625-15-31.644c-8.734-9.833-104.836-118.172-105-118.356z" fill="#52fe83"/><path d="m289.424 443.091c-15.781-18.945-8.247-10.226-34.424-39.732v39.269c11.453-.001 22.929.153 34.424.463z" fill="#34ce96"/></g></svg>